<mxfile host="65bd71144e">
    <diagram id="VfzzyUtiysGuRQwcEHD9" name="Page-1">
        <mxGraphModel dx="3240" dy="1628" grid="1" gridSize="10" guides="1" tooltips="1" connect="1" arrows="1" fold="1" page="1" pageScale="1" pageWidth="1100" pageHeight="850" background="#ffffff" math="0" shadow="0">
            <root>
                <mxCell id="0"/>
                <mxCell id="1" parent="0"/>
                <mxCell id="2" value="&lt;font style=&quot;font-size: 20px;&quot;&gt;sd Gérer les absences&lt;/font&gt;" style="shape=umlFrame;whiteSpace=wrap;html=1;pointerEvents=0;recursiveResize=0;container=1;collapsible=0;width=390;height=50;fillColor=#60a917;fontColor=#ffffff;strokeColor=#2D7600;strokeWidth=3;" parent="1" vertex="1">
                    <mxGeometry x="-90" y="-330" width="1710" height="3500" as="geometry"/>
                </mxCell>
                <mxCell id="5" value=":&lt;font style=&quot;font-size: 20px;&quot;&gt;Système&lt;/font&gt;" style="shape=umlLifeline;perimeter=lifelinePerimeter;whiteSpace=wrap;html=1;container=1;dropTarget=0;collapsible=0;recursiveResize=0;outlineConnect=0;portConstraint=eastwest;newEdgeStyle={&quot;curved&quot;:0,&quot;rounded&quot;:0};size=60;fillColor=#60a917;fontColor=#ffffff;strokeColor=#2D7600;strokeWidth=2;" parent="2" vertex="1">
                    <mxGeometry x="550" y="140" width="180" height="3360" as="geometry"/>
                </mxCell>
                <mxCell id="6" value=":&lt;font style=&quot;font-size: 20px;&quot;&gt;Elèves&lt;/font&gt;" style="shape=umlLifeline;perimeter=lifelinePerimeter;whiteSpace=wrap;html=1;container=1;dropTarget=0;collapsible=0;recursiveResize=0;outlineConnect=0;portConstraint=eastwest;newEdgeStyle={&quot;curved&quot;:0,&quot;rounded&quot;:0};size=60;fillColor=#60a917;fontColor=#ffffff;strokeColor=#2D7600;strokeWidth=2;" parent="2" vertex="1">
                    <mxGeometry x="1480" y="140" width="180" height="3360" as="geometry"/>
                </mxCell>
                <mxCell id="7" value=":&lt;font style=&quot;font-size: 20px;&quot;&gt;Administration&lt;/font&gt;" style="shape=umlLifeline;perimeter=lifelinePerimeter;whiteSpace=wrap;html=1;container=1;dropTarget=0;collapsible=0;recursiveResize=0;outlineConnect=0;portConstraint=eastwest;newEdgeStyle={&quot;curved&quot;:0,&quot;rounded&quot;:0};size=60;fillColor=#60a917;fontColor=#ffffff;strokeColor=#2D7600;strokeWidth=2;" parent="2" vertex="1">
                    <mxGeometry x="1030" y="140" width="180" height="3360" as="geometry"/>
                </mxCell>
                <mxCell id="8" value="&lt;font style=&quot;font-size: 20px;&quot;&gt;:&lt;font style=&quot;&quot;&gt;Professeur&lt;/font&gt;&lt;/font&gt;" style="shape=umlLifeline;perimeter=lifelinePerimeter;whiteSpace=wrap;html=1;container=1;dropTarget=0;collapsible=0;recursiveResize=0;outlineConnect=0;portConstraint=eastwest;newEdgeStyle={&quot;curved&quot;:0,&quot;rounded&quot;:0};size=60;fillColor=#60a917;fontColor=#ffffff;strokeColor=#2D7600;strokeWidth=2;" parent="2" vertex="1">
                    <mxGeometry x="60" y="140" width="180" height="3350" as="geometry"/>
                </mxCell>
                <mxCell id="9" value="" style="html=1;verticalAlign=bottom;labelBackgroundColor=none;endArrow=block;endFill=1;strokeWidth=2;" parent="2" edge="1">
                    <mxGeometry width="160" relative="1" as="geometry">
                        <mxPoint x="149.00333333333347" y="290" as="sourcePoint"/>
                        <mxPoint x="639.6700000000004" y="290" as="targetPoint"/>
                    </mxGeometry>
                </mxCell>
                <mxCell id="10" value="&lt;font style=&quot;font-size: 18px;&quot;&gt;Identification&lt;/font&gt;" style="text;html=1;align=center;verticalAlign=middle;resizable=0;points=[];autosize=1;strokeColor=none;fillColor=none;" parent="2" vertex="1">
                    <mxGeometry x="300" y="255" width="120" height="40" as="geometry"/>
                </mxCell>
                <mxCell id="11" value="" style="endArrow=classic;html=1;" parent="2" source="5" target="5" edge="1">
                    <mxGeometry width="50" height="50" relative="1" as="geometry">
                        <mxPoint x="680.0033333333334" y="274.17" as="sourcePoint"/>
                        <mxPoint x="840" y="274" as="targetPoint"/>
                        <Array as="points">
                            <mxPoint x="730" y="310"/>
                            <mxPoint x="730" y="380"/>
                        </Array>
                    </mxGeometry>
                </mxCell>
                <mxCell id="13" value="&lt;font style=&quot;font-size: 16px;&quot;&gt;Vérification&lt;/font&gt;" style="text;html=1;align=center;verticalAlign=middle;resizable=0;points=[];autosize=1;strokeColor=none;fillColor=none;strokeWidth=2;" parent="2" vertex="1">
                    <mxGeometry x="730" y="330" width="100" height="30" as="geometry"/>
                </mxCell>
                <mxCell id="15" value="" style="html=1;verticalAlign=bottom;labelBackgroundColor=none;endArrow=block;endFill=1;exitX=0.498;exitY=0.391;exitDx=0;exitDy=0;exitPerimeter=0;strokeWidth=2;" parent="2" edge="1">
                    <mxGeometry width="160" relative="1" as="geometry">
                        <mxPoint x="1115.3999999999999" y="1039.9999999999998" as="sourcePoint"/>
                        <mxPoint x="634.5933333333335" y="1039.9999999999998" as="targetPoint"/>
                    </mxGeometry>
                </mxCell>
                <mxCell id="17" value="" style="html=1;verticalAlign=bottom;labelBackgroundColor=none;endArrow=block;endFill=1;strokeWidth=2;" parent="2" edge="1">
                    <mxGeometry width="160" relative="1" as="geometry">
                        <mxPoint x="1569.4999999999995" y="1840" as="sourcePoint"/>
                        <mxPoint x="640" y="1840" as="targetPoint"/>
                    </mxGeometry>
                </mxCell>
                <mxCell id="19" value="&lt;font style=&quot;font-size: 18px;&quot;&gt;Vérification&lt;/font&gt;" style="text;html=1;align=center;verticalAlign=middle;resizable=0;points=[];autosize=1;strokeColor=none;fillColor=none;strokeWidth=2;" parent="2" vertex="1">
                    <mxGeometry x="450" y="1080" width="110" height="40" as="geometry"/>
                </mxCell>
                <mxCell id="20" value="&lt;font style=&quot;font-size: 16px;&quot;&gt;Vérification&lt;/font&gt;" style="text;html=1;align=center;verticalAlign=middle;resizable=0;points=[];autosize=1;strokeColor=none;fillColor=none;strokeWidth=2;" parent="2" vertex="1">
                    <mxGeometry x="455" y="1890" width="100" height="30" as="geometry"/>
                </mxCell>
                <mxCell id="21" value="&lt;font style=&quot;font-size: 24px;&quot;&gt;Identification&lt;/font&gt;" style="text;html=1;align=center;verticalAlign=middle;resizable=0;points=[];autosize=1;strokeColor=none;fillColor=none;" parent="2" vertex="1">
                    <mxGeometry x="790" y="990" width="160" height="40" as="geometry"/>
                </mxCell>
                <mxCell id="22" value="&lt;font style=&quot;font-size: 18px;&quot;&gt;Identification&lt;/font&gt;" style="text;html=1;align=center;verticalAlign=middle;resizable=0;points=[];autosize=1;strokeColor=none;fillColor=none;" parent="2" vertex="1">
                    <mxGeometry x="1195" y="1800" width="120" height="40" as="geometry"/>
                </mxCell>
                <mxCell id="25" value="" style="html=1;verticalAlign=bottom;labelBackgroundColor=none;endArrow=block;endFill=1;exitX=0.498;exitY=0.391;exitDx=0;exitDy=0;exitPerimeter=0;strokeWidth=2;" parent="2" edge="1">
                    <mxGeometry width="160" relative="1" as="geometry">
                        <mxPoint x="1120.3999999999999" y="1259.9999999999998" as="sourcePoint"/>
                        <mxPoint x="639.5933333333335" y="1259.9999999999998" as="targetPoint"/>
                    </mxGeometry>
                </mxCell>
                <mxCell id="26" value="" style="html=1;verticalAlign=bottom;labelBackgroundColor=none;endArrow=block;endFill=1;strokeWidth=2;" parent="2" edge="1">
                    <mxGeometry width="160" relative="1" as="geometry">
                        <mxPoint x="149.00333333333347" y="470" as="sourcePoint"/>
                        <mxPoint x="639.6700000000004" y="470" as="targetPoint"/>
                    </mxGeometry>
                </mxCell>
                <mxCell id="27" value="&lt;span style=&quot;font-size: 17px;&quot;&gt;Consulter liste des absences (classe_enseignée)&lt;/span&gt;" style="text;html=1;align=center;verticalAlign=middle;resizable=0;points=[];autosize=1;strokeColor=none;fillColor=none;" parent="2" vertex="1">
                    <mxGeometry x="230" y="600" width="390" height="30" as="geometry"/>
                </mxCell>
                <mxCell id="28" value="" style="html=1;verticalAlign=bottom;labelBackgroundColor=none;endArrow=block;endFill=1;strokeWidth=2;" parent="2" edge="1">
                    <mxGeometry width="160" relative="1" as="geometry">
                        <mxPoint x="149.66333333333347" y="630" as="sourcePoint"/>
                        <mxPoint x="640.3300000000004" y="630" as="targetPoint"/>
                    </mxGeometry>
                </mxCell>
                <mxCell id="29" value="&lt;font style=&quot;font-size: 18px;&quot;&gt;Afficher liste des étudiants (classe_enseignée)&lt;/font&gt;" style="text;html=1;align=center;verticalAlign=middle;resizable=0;points=[];autosize=1;strokeColor=none;fillColor=none;" parent="2" vertex="1">
                    <mxGeometry x="185" y="435" width="390" height="40" as="geometry"/>
                </mxCell>
                <mxCell id="31" value="" style="html=1;verticalAlign=bottom;labelBackgroundColor=none;endArrow=block;endFill=1;dashed=1;strokeWidth=2;" parent="2" edge="1">
                    <mxGeometry width="160" relative="1" as="geometry">
                        <mxPoint x="639.6700000000004" y="530" as="sourcePoint"/>
                        <mxPoint x="149.00333333333347" y="530" as="targetPoint"/>
                    </mxGeometry>
                </mxCell>
                <mxCell id="32" value="&lt;font style=&quot;font-size: 18px;&quot;&gt;liste des étudiants&lt;/font&gt;" style="text;html=1;align=center;verticalAlign=middle;resizable=0;points=[];autosize=1;strokeColor=none;fillColor=none;" parent="2" vertex="1">
                    <mxGeometry x="310" y="490" width="170" height="40" as="geometry"/>
                </mxCell>
                <mxCell id="33" value="" style="html=1;verticalAlign=bottom;labelBackgroundColor=none;endArrow=block;endFill=1;strokeWidth=2;" parent="2" edge="1">
                    <mxGeometry width="160" relative="1" as="geometry">
                        <mxPoint x="149.00333333333347" y="790" as="sourcePoint"/>
                        <mxPoint x="639.6700000000004" y="790" as="targetPoint"/>
                    </mxGeometry>
                </mxCell>
                <mxCell id="34" value="&lt;span style=&quot;font-size: 17px;&quot;&gt;Effectuer le controle de présence&lt;/span&gt;" style="text;html=1;align=center;verticalAlign=middle;resizable=0;points=[];autosize=1;strokeColor=none;fillColor=none;" parent="2" vertex="1">
                    <mxGeometry x="260" y="760" width="270" height="30" as="geometry"/>
                </mxCell>
                <mxCell id="37" value="" style="endArrow=classic;html=1;" parent="2" edge="1">
                    <mxGeometry width="50" height="50" relative="1" as="geometry">
                        <mxPoint x="640" y="810" as="sourcePoint"/>
                        <mxPoint x="639.3333333333335" y="860" as="targetPoint"/>
                        <Array as="points">
                            <mxPoint x="720" y="810"/>
                            <mxPoint x="720" y="860"/>
                        </Array>
                    </mxGeometry>
                </mxCell>
                <mxCell id="38" value="&lt;span style=&quot;font-size: 18px;&quot;&gt;Confirmation&lt;/span&gt;" style="text;html=1;align=center;verticalAlign=middle;resizable=0;points=[];autosize=1;strokeColor=none;fillColor=none;strokeWidth=2;" parent="2" vertex="1">
                    <mxGeometry x="720" y="810" width="130" height="40" as="geometry"/>
                </mxCell>
                <mxCell id="40" value="&lt;span style=&quot;font-size: 17px;&quot;&gt;Gérer les utilisateurs&lt;/span&gt;" style="text;html=1;align=center;verticalAlign=middle;resizable=0;points=[];autosize=1;strokeColor=none;fillColor=none;" parent="2" vertex="1">
                    <mxGeometry x="775" y="1230" width="180" height="30" as="geometry"/>
                </mxCell>
                <mxCell id="41" value="" style="html=1;verticalAlign=bottom;labelBackgroundColor=none;endArrow=open;endFill=0;exitX=0.498;exitY=0.391;exitDx=0;exitDy=0;exitPerimeter=0;dashed=1;dashPattern=8 8;strokeWidth=2;" parent="2" edge="1">
                    <mxGeometry width="160" relative="1" as="geometry">
                        <mxPoint x="1120.3999999999999" y="1389.9999999999998" as="sourcePoint"/>
                        <mxPoint x="639.5933333333335" y="1389.9999999999998" as="targetPoint"/>
                    </mxGeometry>
                </mxCell>
                <mxCell id="42" value="&lt;span style=&quot;font-size: 17px;&quot;&gt;Ajouter les utilisateurs&lt;/span&gt;" style="text;html=1;align=center;verticalAlign=middle;resizable=0;points=[];autosize=1;strokeColor=none;fillColor=none;" parent="2" vertex="1">
                    <mxGeometry x="780" y="1360" width="190" height="30" as="geometry"/>
                </mxCell>
                <mxCell id="43" value="" style="html=1;verticalAlign=bottom;labelBackgroundColor=none;endArrow=open;endFill=0;dashed=1;dashPattern=8 8;strokeWidth=2;" parent="2" edge="1">
                    <mxGeometry width="160" relative="1" as="geometry">
                        <mxPoint x="640.0035294117654" y="1719.9999999999995" as="sourcePoint"/>
                        <mxPoint x="1120.1799999999998" y="1719.9999999999995" as="targetPoint"/>
                    </mxGeometry>
                </mxCell>
                <mxCell id="44" value="&lt;span style=&quot;font-size: 17px;&quot;&gt;Supprimer les utilisateurs&lt;/span&gt;" style="text;html=1;align=center;verticalAlign=middle;resizable=0;points=[];autosize=1;strokeColor=none;fillColor=none;" parent="2" vertex="1">
                    <mxGeometry x="780" y="1520" width="210" height="30" as="geometry"/>
                </mxCell>
                <mxCell id="46" value="" style="html=1;verticalAlign=bottom;labelBackgroundColor=none;endArrow=block;endFill=1;strokeWidth=2;" parent="2" edge="1">
                    <mxGeometry width="160" relative="1" as="geometry">
                        <mxPoint x="1569.4999999999995" y="2100" as="sourcePoint"/>
                        <mxPoint x="640" y="2100" as="targetPoint"/>
                    </mxGeometry>
                </mxCell>
                <mxCell id="47" value="&lt;span style=&quot;font-size: 17px;&quot;&gt;Modifier son profil&lt;/span&gt;" style="text;html=1;align=center;verticalAlign=middle;resizable=0;points=[];autosize=1;strokeColor=none;fillColor=none;" parent="2" vertex="1">
                    <mxGeometry x="1235" y="2070" width="160" height="30" as="geometry"/>
                </mxCell>
                <mxCell id="48" value="" style="html=1;verticalAlign=bottom;labelBackgroundColor=none;endArrow=open;endFill=0;strokeWidth=2;" parent="2" edge="1">
                    <mxGeometry width="160" relative="1" as="geometry">
                        <mxPoint x="1569.4999999999995" y="2340" as="sourcePoint"/>
                        <mxPoint x="640" y="2340" as="targetPoint"/>
                    </mxGeometry>
                </mxCell>
                <mxCell id="49" value="&lt;span style=&quot;font-size: 17px;&quot;&gt;Consulter historique absence&lt;/span&gt;" style="text;html=1;align=center;verticalAlign=middle;resizable=0;points=[];autosize=1;strokeColor=none;fillColor=none;" parent="2" vertex="1">
                    <mxGeometry x="1215" y="2300" width="240" height="30" as="geometry"/>
                </mxCell>
                <mxCell id="51" value="" style="html=1;verticalAlign=bottom;labelBackgroundColor=none;endArrow=block;endFill=1;strokeWidth=2;" parent="2" edge="1" target="5">
                    <mxGeometry width="160" relative="1" as="geometry">
                        <mxPoint x="1569.4999999999995" y="2720" as="sourcePoint"/>
                        <mxPoint x="1119.4615384615386" y="2720.0000000000005" as="targetPoint"/>
                    </mxGeometry>
                </mxCell>
                <mxCell id="52" value="&lt;span style=&quot;font-size: 17px;&quot;&gt;Justifier une absence (absence)&lt;/span&gt;" style="text;html=1;align=center;verticalAlign=middle;resizable=0;points=[];autosize=1;strokeColor=none;fillColor=none;" parent="2" vertex="1">
                    <mxGeometry x="1200" y="2690" width="260" height="30" as="geometry"/>
                </mxCell>
                <mxCell id="53" value="" style="html=1;verticalAlign=bottom;labelBackgroundColor=none;endArrow=block;endFill=1;exitX=0.498;exitY=0.391;exitDx=0;exitDy=0;exitPerimeter=0;strokeWidth=2;" parent="2" edge="1">
                    <mxGeometry width="160" relative="1" as="geometry">
                        <mxPoint x="1120.81" y="1639.9999999999998" as="sourcePoint"/>
                        <mxPoint x="640.0033333333334" y="1639.9999999999998" as="targetPoint"/>
                    </mxGeometry>
                </mxCell>
                <mxCell id="54" value="&lt;span style=&quot;font-size: 17px;&quot;&gt;Consulter liste des absences&lt;/span&gt;" style="text;html=1;align=center;verticalAlign=middle;resizable=0;points=[];autosize=1;strokeColor=none;fillColor=none;" parent="2" vertex="1">
                    <mxGeometry x="785" y="1610" width="240" height="30" as="geometry"/>
                </mxCell>
                <mxCell id="55" value="" style="html=1;verticalAlign=bottom;labelBackgroundColor=none;endArrow=block;endFill=1;dashed=1;dashPattern=8 8;strokeWidth=2;" parent="2" edge="1" target="5">
                    <mxGeometry width="160" relative="1" as="geometry">
                        <mxPoint x="1125.2533333333336" y="2889.9999999999995" as="sourcePoint"/>
                        <mxPoint x="1574.75" y="2889.9999999999995" as="targetPoint"/>
                    </mxGeometry>
                </mxCell>
                <mxCell id="59" value="&lt;font style=&quot;font-size: 20px;&quot;&gt;alt&lt;/font&gt;" style="shape=umlFrame;whiteSpace=wrap;html=1;pointerEvents=0;fillColor=#60a917;fontColor=#ffffff;strokeColor=#2D7600;strokeWidth=3;width=125;height=40;" parent="2" vertex="1">
                    <mxGeometry x="440" y="2600" width="1225" height="590" as="geometry"/>
                </mxCell>
                <mxCell id="60" value="&lt;font style=&quot;font-size: 16px;&quot;&gt;[si absence]&lt;/font&gt;" style="text;html=1;align=center;verticalAlign=middle;resizable=0;points=[];autosize=1;strokeColor=none;fillColor=none;" parent="2" vertex="1">
                    <mxGeometry x="550" y="2600" width="110" height="30" as="geometry"/>
                </mxCell>
                <mxCell id="61" value="&lt;span style=&quot;font-size: 16px;&quot;&gt;accepter reclamation&lt;/span&gt;" style="text;html=1;align=center;verticalAlign=middle;resizable=0;points=[];autosize=1;strokeColor=none;fillColor=none;" parent="2" vertex="1">
                    <mxGeometry x="785" y="2860" width="170" height="30" as="geometry"/>
                </mxCell>
                <mxCell id="64" value="" style="endArrow=none;dashed=1;html=1;entryX=0.008;entryY=0.512;entryDx=0;entryDy=0;entryPerimeter=0;exitX=0.999;exitY=0.506;exitDx=0;exitDy=0;exitPerimeter=0;strokeColor=light-dark(#000000, #60a917);strokeWidth=5;" parent="2" edge="1">
                    <mxGeometry width="50" height="50" relative="1" as="geometry">
                        <mxPoint x="1144.6899999999998" y="2970" as="sourcePoint"/>
                        <mxPoint x="560.0000000000002" y="2971.2599999999998" as="targetPoint"/>
                    </mxGeometry>
                </mxCell>
                <mxCell id="69" value="&lt;font style=&quot;font-size: 18px;&quot;&gt;opt&lt;/font&gt;" style="shape=umlFrame;whiteSpace=wrap;html=1;pointerEvents=0;width=100;height=40;fillColor=#60a917;fontColor=#ffffff;strokeColor=#2D7600;strokeWidth=3;" parent="2" vertex="1">
                    <mxGeometry x="530" y="1210" width="650" height="570" as="geometry"/>
                </mxCell>
                <mxCell id="70" value="&lt;span style=&quot;font-size: 17px;&quot;&gt;Fournir liste des absences&lt;/span&gt;" style="text;html=1;align=center;verticalAlign=middle;resizable=0;points=[];autosize=1;strokeColor=none;fillColor=none;" parent="2" vertex="1">
                    <mxGeometry x="770" y="1690" width="220" height="30" as="geometry"/>
                </mxCell>
                <mxCell id="71" value="" style="html=1;verticalAlign=bottom;labelBackgroundColor=none;endArrow=block;endFill=1;dashed=1;strokeWidth=2;" parent="2" edge="1">
                    <mxGeometry width="160" relative="1" as="geometry">
                        <mxPoint x="639.6700000000004" y="400" as="sourcePoint"/>
                        <mxPoint x="149.00333333333347" y="400" as="targetPoint"/>
                    </mxGeometry>
                </mxCell>
                <mxCell id="72" value="&lt;span style=&quot;font-size: 17px;&quot;&gt;Accès valide&lt;/span&gt;" style="text;html=1;align=center;verticalAlign=middle;resizable=0;points=[];autosize=1;strokeColor=none;fillColor=none;" parent="2" vertex="1">
                    <mxGeometry x="330" y="370" width="120" height="30" as="geometry"/>
                </mxCell>
                <mxCell id="73" value="" style="html=1;verticalAlign=bottom;labelBackgroundColor=none;endArrow=open;endFill=0;dashed=1;dashPattern=8 8;strokeWidth=2;" parent="2" edge="1">
                    <mxGeometry width="160" relative="1" as="geometry">
                        <mxPoint x="639.9135294117654" y="1149.9999999999995" as="sourcePoint"/>
                        <mxPoint x="1120.09" y="1149.9999999999995" as="targetPoint"/>
                    </mxGeometry>
                </mxCell>
                <mxCell id="74" value="" style="html=1;verticalAlign=bottom;labelBackgroundColor=none;endArrow=open;endFill=0;exitX=0.498;exitY=0.391;exitDx=0;exitDy=0;exitPerimeter=0;dashed=1;dashPattern=8 8;strokeWidth=2;" parent="2" edge="1">
                    <mxGeometry width="160" relative="1" as="geometry">
                        <mxPoint x="1120.3999999999999" y="1549.9999999999998" as="sourcePoint"/>
                        <mxPoint x="639.5933333333335" y="1549.9999999999998" as="targetPoint"/>
                    </mxGeometry>
                </mxCell>
                <mxCell id="76" value="&lt;span style=&quot;font-size: 17px;&quot;&gt;Accès valide&lt;/span&gt;" style="text;html=1;align=center;verticalAlign=middle;resizable=0;points=[];autosize=1;strokeColor=none;fillColor=none;" parent="2" vertex="1">
                    <mxGeometry x="820" y="1120" width="120" height="30" as="geometry"/>
                </mxCell>
                <mxCell id="77" value="" style="html=1;verticalAlign=bottom;labelBackgroundColor=none;endArrow=open;endFill=0;dashed=1;dashPattern=8 8;strokeWidth=2;" parent="2" edge="1">
                    <mxGeometry width="160" relative="1" as="geometry">
                        <mxPoint x="640.0035294117654" y="1959.9999999999995" as="sourcePoint"/>
                        <mxPoint x="1569" y="1959.9999999999995" as="targetPoint"/>
                    </mxGeometry>
                </mxCell>
                <mxCell id="78" value="&lt;span style=&quot;font-size: 17px;&quot;&gt;Accès valide&lt;/span&gt;" style="text;html=1;align=center;verticalAlign=middle;resizable=0;points=[];autosize=1;strokeColor=none;fillColor=none;" parent="2" vertex="1">
                    <mxGeometry x="1170" y="1930" width="120" height="30" as="geometry"/>
                </mxCell>
                <mxCell id="39" value="&lt;font style=&quot;font-size: 18px;&quot;&gt;opt&lt;/font&gt;" style="shape=umlFrame;whiteSpace=wrap;html=1;pointerEvents=0;width=100;height=40;fillColor=#60a917;fontColor=#ffffff;strokeColor=#2D7600;strokeWidth=3;" parent="2" vertex="1">
                    <mxGeometry x="120" y="570" width="550" height="160" as="geometry"/>
                </mxCell>
                <mxCell id="79" value="" style="html=1;verticalAlign=bottom;labelBackgroundColor=none;endArrow=block;endFill=1;dashed=1;strokeWidth=2;" parent="2" edge="1">
                    <mxGeometry width="160" relative="1" as="geometry">
                        <mxPoint x="635.3300000000004" y="690" as="sourcePoint"/>
                        <mxPoint x="144.66333333333347" y="690" as="targetPoint"/>
                    </mxGeometry>
                </mxCell>
                <mxCell id="80" value="&lt;font style=&quot;font-size: 18px;&quot;&gt;liste des absences&lt;/font&gt;" style="text;html=1;align=center;verticalAlign=middle;resizable=0;points=[];autosize=1;strokeColor=none;fillColor=none;" parent="2" vertex="1">
                    <mxGeometry x="320" y="650" width="170" height="40" as="geometry"/>
                </mxCell>
                <mxCell id="84" value="" style="html=1;verticalAlign=bottom;labelBackgroundColor=none;endArrow=open;endFill=0;dashed=1;dashPattern=8 8;strokeWidth=2;" parent="2" edge="1">
                    <mxGeometry width="160" relative="1" as="geometry">
                        <mxPoint x="640.0035294117654" y="2454.9999999999995" as="sourcePoint"/>
                        <mxPoint x="1570" y="2455" as="targetPoint"/>
                    </mxGeometry>
                </mxCell>
                <mxCell id="85" value="&lt;span style=&quot;font-size: 17px;&quot;&gt;Afficher historique d&#39;absence&lt;/span&gt;" style="text;html=1;align=center;verticalAlign=middle;resizable=0;points=[];autosize=1;strokeColor=none;fillColor=none;" parent="2" vertex="1">
                    <mxGeometry x="1195" y="2420" width="240" height="30" as="geometry"/>
                </mxCell>
                <mxCell id="86" value="" style="html=1;verticalAlign=bottom;labelBackgroundColor=none;endArrow=open;endFill=0;dashed=1;dashPattern=8 8;strokeWidth=2;" parent="2" edge="1">
                    <mxGeometry width="160" relative="1" as="geometry">
                        <mxPoint x="640.0035294117654" y="2199.9999999999995" as="sourcePoint"/>
                        <mxPoint x="1570" y="2200" as="targetPoint"/>
                    </mxGeometry>
                </mxCell>
                <mxCell id="87" value="&lt;span style=&quot;font-size: 17px;&quot;&gt;Mise à jour effectuer&lt;/span&gt;" style="text;html=1;align=center;verticalAlign=middle;resizable=0;points=[];autosize=1;strokeColor=none;fillColor=none;" parent="2" vertex="1">
                    <mxGeometry x="1215" y="2170" width="180" height="30" as="geometry"/>
                </mxCell>
                <mxCell id="88" value="&lt;font style=&quot;font-size: 18px;&quot;&gt;opt&lt;/font&gt;" style="shape=umlFrame;whiteSpace=wrap;html=1;pointerEvents=0;width=100;height=40;fillColor=#60a917;fontColor=#ffffff;strokeColor=#2D7600;strokeWidth=3;" parent="2" vertex="1">
                    <mxGeometry x="580" y="2040" width="1010" height="460" as="geometry"/>
                </mxCell>
                <mxCell id="89" value="" style="html=1;verticalAlign=bottom;labelBackgroundColor=none;endArrow=block;endFill=1;strokeWidth=2;" parent="2" edge="1">
                    <mxGeometry width="160" relative="1" as="geometry">
                        <mxPoint x="1570.5799999999995" y="3420" as="sourcePoint"/>
                        <mxPoint x="640.0015384615385" y="3420.0000000000005" as="targetPoint"/>
                    </mxGeometry>
                </mxCell>
                <mxCell id="90" value="&lt;font style=&quot;font-size: 17px;&quot;&gt;Deconnexion&lt;/font&gt;" style="text;html=1;align=center;verticalAlign=middle;resizable=0;points=[];autosize=1;strokeColor=none;fillColor=none;" parent="2" vertex="1">
                    <mxGeometry x="335" y="3300" width="120" height="30" as="geometry"/>
                </mxCell>
                <mxCell id="91" value="" style="html=1;verticalAlign=bottom;labelBackgroundColor=none;endArrow=block;endFill=1;strokeWidth=2;" parent="2" edge="1">
                    <mxGeometry width="160" relative="1" as="geometry">
                        <mxPoint x="149.66333333333347" y="3330" as="sourcePoint"/>
                        <mxPoint x="640.3300000000004" y="3330" as="targetPoint"/>
                    </mxGeometry>
                </mxCell>
                <mxCell id="92" value="&lt;font style=&quot;font-size: 17px;&quot;&gt;Deconnexion&lt;/font&gt;" style="text;html=1;align=center;verticalAlign=middle;resizable=0;points=[];autosize=1;strokeColor=none;fillColor=none;" parent="2" vertex="1">
                    <mxGeometry x="1275" y="3390" width="120" height="30" as="geometry"/>
                </mxCell>
                <mxCell id="93" value="" style="html=1;verticalAlign=bottom;labelBackgroundColor=none;endArrow=block;endFill=1;strokeWidth=2;" parent="2" edge="1">
                    <mxGeometry width="160" relative="1" as="geometry">
                        <mxPoint x="1119" y="3359.9999999999995" as="sourcePoint"/>
                        <mxPoint x="640.0015384615385" y="3360.0000000000005" as="targetPoint"/>
                    </mxGeometry>
                </mxCell>
                <mxCell id="94" value="&lt;font style=&quot;font-size: 17px;&quot;&gt;Deconnexion&lt;/font&gt;" style="text;html=1;align=center;verticalAlign=middle;resizable=0;points=[];autosize=1;strokeColor=none;fillColor=none;" parent="2" vertex="1">
                    <mxGeometry x="780" y="3330" width="120" height="30" as="geometry"/>
                </mxCell>
                <mxCell id="108" value="" style="html=1;verticalAlign=bottom;labelBackgroundColor=none;endArrow=block;endFill=1;dashed=1;strokeWidth=2;" edge="1" parent="2">
                    <mxGeometry width="160" relative="1" as="geometry">
                        <mxPoint x="639.6700000000004" y="890" as="sourcePoint"/>
                        <mxPoint x="149.00333333333347" y="890" as="targetPoint"/>
                    </mxGeometry>
                </mxCell>
                <mxCell id="109" value="&lt;span style=&quot;font-size: 17px;&quot;&gt;Absence effectuée avec succès&lt;/span&gt;" style="text;html=1;align=center;verticalAlign=middle;resizable=0;points=[];autosize=1;strokeColor=none;fillColor=none;" vertex="1" parent="2">
                    <mxGeometry x="270" y="860" width="260" height="30" as="geometry"/>
                </mxCell>
                <mxCell id="111" value="" style="endArrow=classic;html=1;" edge="1" parent="2">
                    <mxGeometry width="50" height="50" relative="1" as="geometry">
                        <mxPoint x="640" y="1070" as="sourcePoint"/>
                        <mxPoint x="640" y="1110" as="targetPoint"/>
                        <Array as="points">
                            <mxPoint x="563" y="1070"/>
                            <mxPoint x="563" y="1110"/>
                        </Array>
                    </mxGeometry>
                </mxCell>
                <mxCell id="113" value="&lt;span style=&quot;font-size: 20px;&quot;&gt;opt&lt;/span&gt;" style="shape=umlFrame;whiteSpace=wrap;html=1;pointerEvents=0;fillColor=#60a917;fontColor=#ffffff;strokeColor=#2D7600;strokeWidth=3;width=90;height=40;" vertex="1" parent="2">
                    <mxGeometry x="520" y="2660" width="1090" height="490" as="geometry"/>
                </mxCell>
                <mxCell id="114" value="" style="html=1;verticalAlign=bottom;labelBackgroundColor=none;endArrow=block;endFill=1;strokeWidth=2;" edge="1" parent="2">
                    <mxGeometry width="160" relative="1" as="geometry">
                        <mxPoint x="640" y="2780" as="sourcePoint"/>
                        <mxPoint x="1120.3300000000004" y="2780" as="targetPoint"/>
                    </mxGeometry>
                </mxCell>
                <mxCell id="115" value="&lt;span style=&quot;font-size: 17px;&quot;&gt;reclamation etudiant (absence)&lt;/span&gt;" style="text;html=1;align=center;verticalAlign=middle;resizable=0;points=[];autosize=1;strokeColor=none;fillColor=none;" vertex="1" parent="2">
                    <mxGeometry x="745" y="2750" width="260" height="30" as="geometry"/>
                </mxCell>
                <mxCell id="116" value="&lt;font style=&quot;font-size: 20px;&quot;&gt;alt&lt;/font&gt;" style="shape=umlFrame;whiteSpace=wrap;html=1;pointerEvents=0;fillColor=#60a917;fontColor=#ffffff;strokeColor=#2D7600;strokeWidth=3;width=90;height=40;" vertex="1" parent="2">
                    <mxGeometry x="560" y="2820" width="590" height="280" as="geometry"/>
                </mxCell>
                <mxCell id="117" value="&lt;font style=&quot;font-size: 16px;&quot;&gt;[si&amp;nbsp; justificatif valide]&lt;/font&gt;" style="text;html=1;align=center;verticalAlign=middle;resizable=0;points=[];autosize=1;strokeColor=none;fillColor=none;" vertex="1" parent="2">
                    <mxGeometry x="650" y="2820" width="160" height="30" as="geometry"/>
                </mxCell>
                <mxCell id="118" value="" style="html=1;verticalAlign=bottom;labelBackgroundColor=none;endArrow=block;endFill=1;dashed=1;dashPattern=8 8;strokeWidth=2;" edge="1" parent="2" source="5">
                    <mxGeometry width="160" relative="1" as="geometry">
                        <mxPoint x="780.0033333333334" y="2940" as="sourcePoint"/>
                        <mxPoint x="1573.42" y="2940" as="targetPoint"/>
                    </mxGeometry>
                </mxCell>
                <mxCell id="119" value="&lt;font style=&quot;font-size: 16px;&quot;&gt;reclamation accordée&lt;/font&gt;" style="text;html=1;align=center;verticalAlign=middle;resizable=0;points=[];autosize=1;strokeColor=none;fillColor=none;" vertex="1" parent="2">
                    <mxGeometry x="1200" y="2910" width="180" height="30" as="geometry"/>
                </mxCell>
                <mxCell id="120" value="" style="html=1;verticalAlign=bottom;labelBackgroundColor=none;endArrow=block;endFill=1;dashed=1;dashPattern=8 8;strokeWidth=2;" edge="1" parent="2">
                    <mxGeometry width="160" relative="1" as="geometry">
                        <mxPoint x="1126.2533333333336" y="3019.9999999999995" as="sourcePoint"/>
                        <mxPoint x="640" y="3020" as="targetPoint"/>
                    </mxGeometry>
                </mxCell>
                <mxCell id="121" value="&lt;span style=&quot;font-size: 16px;&quot;&gt;refuser reclamation&lt;/span&gt;" style="text;html=1;align=center;verticalAlign=middle;resizable=0;points=[];autosize=1;strokeColor=none;fillColor=none;" vertex="1" parent="2">
                    <mxGeometry x="775" y="2990" width="160" height="30" as="geometry"/>
                </mxCell>
                <mxCell id="122" value="" style="html=1;verticalAlign=bottom;labelBackgroundColor=none;endArrow=block;endFill=1;dashed=1;dashPattern=8 8;strokeWidth=2;" edge="1" parent="2">
                    <mxGeometry width="160" relative="1" as="geometry">
                        <mxPoint x="640" y="3070" as="sourcePoint"/>
                        <mxPoint x="1574.42" y="3070" as="targetPoint"/>
                    </mxGeometry>
                </mxCell>
                <mxCell id="123" value="&lt;font style=&quot;font-size: 16px;&quot;&gt;reclamation refuser&lt;/font&gt;" style="text;html=1;align=center;verticalAlign=middle;resizable=0;points=[];autosize=1;strokeColor=none;fillColor=none;" vertex="1" parent="2">
                    <mxGeometry x="1210" y="3040" width="160" height="30" as="geometry"/>
                </mxCell>
                <mxCell id="124" value="" style="endArrow=classic;html=1;" edge="1" parent="2">
                    <mxGeometry width="50" height="50" relative="1" as="geometry">
                        <mxPoint x="639" y="1870" as="sourcePoint"/>
                        <mxPoint x="638" y="1930" as="targetPoint"/>
                        <Array as="points">
                            <mxPoint x="560" y="1870"/>
                            <mxPoint x="560" y="1930"/>
                        </Array>
                    </mxGeometry>
                </mxCell>
                <mxCell id="125" value="&lt;span style=&quot;font-size: 18px;&quot;&gt;alt&lt;/span&gt;" style="shape=umlFrame;whiteSpace=wrap;html=1;pointerEvents=0;width=100;height=40;fillColor=#60a917;fontColor=#ffffff;strokeColor=#2D7600;strokeWidth=3;" vertex="1" parent="2">
                    <mxGeometry x="585" y="1320" width="565" height="280" as="geometry"/>
                </mxCell>
                <mxCell id="126" value="&lt;font style=&quot;font-size: 18px;&quot;&gt;[Nouveau étudiant]&lt;/font&gt;" style="text;html=1;align=center;verticalAlign=middle;resizable=0;points=[];autosize=1;strokeColor=none;fillColor=none;" vertex="1" parent="2">
                    <mxGeometry x="680" y="1310" width="170" height="40" as="geometry"/>
                </mxCell>
                <mxCell id="127" value="&lt;font style=&quot;font-size: 18px;&quot;&gt;[Etudiant quitte]&lt;/font&gt;" style="text;html=1;align=center;verticalAlign=middle;resizable=0;points=[];autosize=1;strokeColor=none;fillColor=none;" vertex="1" parent="2">
                    <mxGeometry x="595" y="1460" width="150" height="40" as="geometry"/>
                </mxCell>
                <mxCell id="128" value="" style="endArrow=none;dashed=1;html=1;entryX=0.008;entryY=0.512;entryDx=0;entryDy=0;entryPerimeter=0;strokeColor=light-dark(#000000, #60a917);strokeWidth=5;" edge="1" parent="2">
                    <mxGeometry width="50" height="50" relative="1" as="geometry">
                        <mxPoint x="1150" y="1458.33" as="sourcePoint"/>
                        <mxPoint x="582.6500000000002" y="1458.7599999999998" as="targetPoint"/>
                    </mxGeometry>
                </mxCell>
                <mxCell id="99" value="&lt;font style=&quot;font-size: 18px;&quot;&gt;opt&lt;/font&gt;" style="shape=umlFrame;whiteSpace=wrap;html=1;pointerEvents=0;width=100;height=40;fillColor=#008a00;fontColor=#ffffff;strokeColor=#005700;strokeWidth=3;" parent="1" vertex="1">
                    <mxGeometry x="-40" y="2940" width="1590" height="185" as="geometry"/>
                </mxCell>
            </root>
        </mxGraphModel>
    </diagram>
</mxfile>